<svg width="2015" height="664" viewBox="0 0 2015 664" fill="none" xmlns="http://www.w3.org/2000/svg">
<path d="M419.336 599.172C431.121 579.527 437.013 557.917 437.013 534.343V504.876C437.013 492.434 432.758 481.957 424.247 473.444C415.735 464.276 404.933 459.692 391.839 459.692H365.323C352.884 459.692 342.082 464.276 332.916 473.444C324.405 481.957 320.149 492.434 320.149 504.876V534.343C320.149 537.617 318.84 540.892 316.221 544.166C313.602 546.785 310.656 548.095 307.382 548.095H130.613C127.339 548.095 124.393 546.785 121.774 544.166C119.156 540.892 117.846 537.617 117.846 534.343V130.639C117.846 121.471 122.102 116.888 130.613 116.888H307.382C315.893 116.888 320.149 121.471 320.149 130.639V157.16C320.149 169.602 324.405 180.079 332.916 188.592C342.082 197.105 352.884 201.361 365.323 201.361H391.839C404.933 201.361 415.735 197.105 424.247 188.592C432.758 180.079 437.013 169.602 437.013 157.16V130.639C437.013 106.41 431.121 84.4734 419.336 64.8284C407.552 45.1835 391.839 29.4675 372.198 17.6805C352.557 5.89349 330.952 0 307.382 0H130.613C107.044 0 85.1112 5.89349 64.8155 17.6805C45.1744 29.4675 29.4616 45.1835 17.6769 64.8284C5.89231 84.4734 0 106.41 0 130.639V534.343C0 557.917 5.89231 579.527 17.6769 599.172C29.4616 618.817 45.1744 634.533 64.8155 646.32C85.1112 658.107 107.044 664 130.613 664H307.382C330.952 664 352.557 658.107 372.198 646.32C391.839 634.533 407.552 618.817 419.336 599.172Z" fill="#808080"/>
<path d="M457.495 422.084C461.832 414.855 464 406.902 464 398.227V218.216C464 213.397 462.434 209.421 459.302 206.288C456.17 203.155 452.194 201.589 447.376 201.589H437.618C433.04 201.589 429.065 203.155 425.692 206.288C422.56 209.421 420.994 213.397 420.994 218.216V398.227C420.994 399.432 420.512 400.637 419.548 401.842C418.585 402.806 417.501 403.288 416.296 403.288H351.245C350.04 403.288 348.956 402.806 347.992 401.842C347.028 400.637 346.547 399.432 346.547 398.227V218.216C346.547 213.397 344.86 209.421 341.487 206.288C338.355 203.155 334.5 201.589 329.922 201.589H319.803C315.226 201.589 311.25 203.155 307.877 206.288C304.745 209.421 303.179 213.397 303.179 218.216V398.227C303.179 406.902 305.348 414.855 309.684 422.084C314.021 429.313 319.803 435.097 327.031 439.434C334.5 443.772 342.571 445.941 351.245 445.941H416.296C424.969 445.941 432.92 443.772 440.148 439.434C447.376 435.097 453.158 429.313 457.495 422.084Z" fill="#808080"/>
<path d="M837.4 305.2C837.4 314.8 835 323.6 830.2 331.6C825.667 339.6 819.4 346 811.4 350.8C803.4 355.6 794.467 358 784.6 358H711C707.8 358 706.2 359.733 706.2 363.2V445.6C706.2 450.667 704.333 455.067 700.6 458.8C697.133 462.267 692.867 464 687.8 464H677C671.933 464 667.533 462.267 663.8 458.8C660.333 455.067 658.6 450.667 658.6 445.6V212C658.6 206.667 660.333 202.267 663.8 198.8C667.533 195.333 671.933 193.6 677 193.6H784.6C794.467 193.6 803.4 196 811.4 200.8C819.4 205.6 825.667 212 830.2 220C835 228 837.4 236.933 837.4 246.8V305.2ZM790.2 305.2V246.8C790.2 243.067 788.333 241.2 784.6 241.2H711C707.8 241.2 706.2 242.933 706.2 246.4V305.2C706.2 308.667 707.8 310.4 711 310.4H784.6C788.333 310.4 790.2 308.667 790.2 305.2Z" fill="#808080"/>
<path d="M1014.35 419.2C1014.35 431.733 1009.95 442.4 1001.15 451.2C992.614 459.733 982.214 464 969.947 464H914.347C902.08 464 891.547 459.733 882.747 451.2C873.947 442.4 869.547 431.733 869.547 419.2V301.6C869.547 293.333 871.547 285.867 875.547 279.2C879.814 272.267 885.28 266.8 891.947 262.8C898.614 258.8 906.08 256.8 914.347 256.8H969.947C978.214 256.8 985.68 258.8 992.347 262.8C999.014 266.8 1004.35 272.267 1008.35 279.2C1012.35 285.867 1014.35 293.333 1014.35 301.6V419.2ZM967.147 411.6V310C967.147 308.4 966.48 307.067 965.147 306C964.08 304.933 962.88 304.4 961.547 304.4H922.747C921.414 304.4 920.08 304.933 918.747 306C917.68 307.067 917.147 308.4 917.147 310V411.6C917.147 412.933 917.68 414.133 918.747 415.2C920.08 416.267 921.414 416.8 922.747 416.8H961.547C962.88 416.8 964.08 416.267 965.147 415.2C966.48 414.133 967.147 412.933 967.147 411.6Z" fill="#808080"/>
<path d="M1165.69 286.4C1165.69 291.467 1163.96 295.733 1160.49 299.2C1157.02 302.667 1152.76 304.4 1147.69 304.4H1100.09C1096.62 304.4 1094.89 306.267 1094.89 310V445.6C1094.89 450.667 1093.02 455.067 1089.29 458.8C1085.82 462.267 1081.56 464 1076.49 464H1065.29C1060.22 464 1055.96 462.267 1052.49 458.8C1049.02 455.067 1047.29 450.667 1047.29 445.6V301.6C1047.29 293.333 1049.29 285.867 1053.29 279.2C1057.29 272.267 1062.62 266.8 1069.29 262.8C1075.96 258.8 1083.42 256.8 1091.69 256.8H1147.69C1152.76 256.8 1157.02 258.667 1160.49 262.4C1163.96 265.867 1165.69 270.267 1165.69 275.6V286.4Z" fill="#808080"/>
<path d="M1316.86 445.6C1316.86 450.667 1315.13 455.067 1311.66 458.8C1308.2 462.267 1303.93 464 1298.86 464H1242.86C1230.6 464 1220.06 459.733 1211.26 451.2C1202.73 442.4 1198.46 431.733 1198.46 419.2V212C1198.46 206.667 1200.2 202.267 1203.66 198.8C1207.13 195.333 1211.4 193.6 1216.46 193.6H1227.66C1232.73 193.6 1237 195.333 1240.46 198.8C1244.2 202.267 1246.06 206.667 1246.06 212V252C1246.06 255.2 1247.8 256.8 1251.26 256.8H1298.86C1303.93 256.8 1308.2 258.667 1311.66 262.4C1315.13 265.867 1316.86 270.267 1316.86 275.6V286.4C1316.86 290.933 1315.13 295.2 1311.66 299.2C1307.66 302.667 1303.4 304.4 1298.86 304.4H1251.26C1247.8 304.4 1246.06 306.267 1246.06 310V411.6C1246.06 415.067 1247.8 416.8 1251.26 416.8H1298.86C1303.93 416.8 1308.2 418.533 1311.66 422C1315.13 425.467 1316.86 429.867 1316.86 435.2V445.6Z" fill="#808080"/>
<path d="M1462.83 286.4C1462.83 291.467 1461.1 295.733 1457.63 299.2C1454.17 302.667 1449.77 304.4 1444.43 304.4H1402.43C1398.97 304.4 1397.23 306.267 1397.23 310V445.6C1397.23 450.667 1395.37 455.067 1391.63 458.8C1388.17 462.267 1383.9 464 1378.83 464H1367.63C1362.57 464 1358.17 462.267 1354.43 458.8C1350.97 455.067 1349.23 450.667 1349.23 445.6V238C1349.23 229.733 1351.23 222.267 1355.23 215.6C1359.5 208.933 1364.97 203.6 1371.63 199.6C1378.3 195.6 1385.77 193.6 1394.03 193.6H1444.43C1449.77 193.6 1454.17 195.333 1457.63 198.8C1461.1 202.267 1462.83 206.667 1462.83 212V222.8C1462.83 227.867 1461.1 232.267 1457.63 236C1454.17 239.467 1449.77 241.2 1444.43 241.2H1402.43C1398.97 241.2 1397.23 242.933 1397.23 246.4V252C1397.23 255.2 1398.97 256.8 1402.43 256.8H1444.43C1449.77 256.8 1454.17 258.667 1457.63 262.4C1461.1 265.867 1462.83 270.267 1462.83 275.6V286.4Z" fill="#808080"/>
<path d="M1640.13 419.2C1640.13 431.733 1635.73 442.4 1626.93 451.2C1618.39 459.733 1607.99 464 1595.73 464H1540.13C1527.86 464 1517.33 459.733 1508.53 451.2C1499.73 442.4 1495.33 431.733 1495.33 419.2V301.6C1495.33 293.333 1497.33 285.867 1501.33 279.2C1505.59 272.267 1511.06 266.8 1517.73 262.8C1524.39 258.8 1531.86 256.8 1540.13 256.8H1595.73C1603.99 256.8 1611.46 258.8 1618.13 262.8C1624.79 266.8 1630.13 272.267 1634.13 279.2C1638.13 285.867 1640.13 293.333 1640.13 301.6V419.2ZM1592.93 411.6V310C1592.93 308.4 1592.26 307.067 1590.93 306C1589.86 304.933 1588.66 304.4 1587.33 304.4H1548.53C1547.19 304.4 1545.86 304.933 1544.53 306C1543.46 307.067 1542.93 308.4 1542.93 310V411.6C1542.93 412.933 1543.46 414.133 1544.53 415.2C1545.86 416.267 1547.19 416.8 1548.53 416.8H1587.33C1588.66 416.8 1589.86 416.267 1590.93 415.2C1592.26 414.133 1592.93 412.933 1592.93 411.6Z" fill="#808080"/>
<path d="M1745.47 445.6C1745.47 450.667 1743.61 455.067 1739.87 458.8C1736.41 462.267 1732.14 464 1727.07 464H1717.07C1704.81 464 1694.27 459.733 1685.47 451.2C1676.67 442.4 1672.27 431.733 1672.27 419.2V212C1672.27 206.667 1674.01 202.267 1677.47 198.8C1681.21 195.333 1685.61 193.6 1690.67 193.6H1701.87C1706.94 193.6 1711.21 195.333 1714.67 198.8C1718.41 202.267 1720.27 206.667 1720.27 212V411.6C1720.27 415.067 1721.87 416.8 1725.07 416.8H1727.07C1732.14 416.8 1736.41 418.533 1739.87 422C1743.61 425.467 1745.47 429.867 1745.47 435.2V445.6Z" fill="#808080"/>
<path d="M1837.37 219.2C1837.37 227.467 1834.3 234.667 1828.17 240.8C1822.3 246.667 1815.37 249.6 1807.37 249.6C1799.1 249.6 1791.9 246.667 1785.77 240.8C1779.9 234.667 1776.97 227.467 1776.97 219.2C1776.97 211.2 1779.9 204.267 1785.77 198.4C1791.9 192.267 1799.1 189.2 1807.37 189.2C1815.37 189.2 1822.3 192.267 1828.17 198.4C1834.3 204.267 1837.37 211.2 1837.37 219.2ZM1830.97 445.6C1830.97 450.667 1829.1 455.067 1825.37 458.8C1821.9 462.267 1817.64 464 1812.57 464H1801.77C1796.7 464 1792.3 462.267 1788.57 458.8C1785.1 455.067 1783.37 450.667 1783.37 445.6V279.6C1783.37 274.533 1785.1 270.267 1788.57 266.8C1792.3 263.067 1796.7 261.2 1801.77 261.2H1812.57C1817.64 261.2 1821.9 263.067 1825.37 266.8C1829.1 270.267 1830.97 274.533 1830.97 279.6V445.6Z" fill="#808080"/>
<path d="M2014.35 419.2C2014.35 431.733 2009.95 442.4 2001.15 451.2C1992.61 459.733 1982.21 464 1969.95 464H1914.35C1902.08 464 1891.55 459.733 1882.75 451.2C1873.95 442.4 1869.55 431.733 1869.55 419.2V301.6C1869.55 293.333 1871.55 285.867 1875.55 279.2C1879.81 272.267 1885.28 266.8 1891.95 262.8C1898.61 258.8 1906.08 256.8 1914.35 256.8H1969.95C1978.21 256.8 1985.68 258.8 1992.35 262.8C1999.01 266.8 2004.35 272.267 2008.35 279.2C2012.35 285.867 2014.35 293.333 2014.35 301.6V419.2ZM1967.15 411.6V310C1967.15 308.4 1966.48 307.067 1965.15 306C1964.08 304.933 1962.88 304.4 1961.55 304.4H1922.75C1921.41 304.4 1920.08 304.933 1918.75 306C1917.68 307.067 1917.15 308.4 1917.15 310V411.6C1917.15 412.933 1917.68 414.133 1918.75 415.2C1920.08 416.267 1921.41 416.8 1922.75 416.8H1961.55C1962.88 416.8 1964.08 416.267 1965.15 415.2C1966.48 414.133 1967.15 412.933 1967.15 411.6Z" fill="#808080"/>
</svg>
